<svg id="Capa_1" data-name="Capa 1" xmlns="http://www.w3.org/2000/svg" viewBox="0 0 29.98 18.5"><defs><style>.cls-1{fill:#fff;}</style></defs><path class="cls-1" d="M1,6.75v18.5H9.94c.83,0,6.53-.17,6.53-5.37a4.56,4.56,0,0,0-3.38-4.69,4,4,0,0,0,2.5-3.85c0-1.39-.2-4.59-5.9-4.59ZM21.38,8.47v1.69h6.9V8.47ZM5.06,9.91H8.88c.35,0,2.78-.2,2.78,2.12a2.18,2.18,0,0,1-2.47,2.19H5.06ZM25,11.69c-5.22,0-6.31,4.53-6.31,6.5,0,5.83,4.78,6.5,6.31,6.5a5.5,5.5,0,0,0,5.78-4.16h-3a2.89,2.89,0,0,1-2.65,1.63,2.82,2.82,0,0,1-3-3.16H31C31.15,15.63,29.67,11.69,25,11.69Zm-.09,2.53a2.48,2.48,0,0,1,1.9.69,3.37,3.37,0,0,1,.78,2h-5.5a4.06,4.06,0,0,1,.16-.82,2.39,2.39,0,0,1,.44-.87,2.74,2.74,0,0,1,.87-.69A2.87,2.87,0,0,1,24.91,14.22ZM5.06,17H9.47c.87,0,2.94.14,2.94,2.66s-2.6,2.43-3,2.43H5.06Z" transform="translate(-1 -6.75)"/></svg>